<svg viewBox="0 0 242.1 124" height="50">
  <g>
  <title>Layer 1</title>
  <path d="m32.335,44.33348c0,1 0,1 0,2c0,1 0,1 0,2c0,1 0,1 0,2c0,1 0,1 0,2c0,1 0,1 0,2c0,1 0,1 0,2c0,1 0,1 0,2c0,1 0,1 0,2c0,1 0,1 0,2c0,1 0,1 0,2c0,1 0,2 0,3c0,0 0,1 0,2c0,0 0,1 0,2c0,0 -0.4588,0.69344 -1,2c-0.76537,1.84776 0,2 0,3c0,1 0,1 0,2c0,1 0,1 0,2c0,1 0,1 0,2c0,1 0,1 0,2c0,1 0,1 0,2c0,1 0.38268,1.07612 0,2c-0.5412,1.30656 -1,1 -1,2c0,1 0,1 1,1c2,0 3,0 4,-1c0,0 1,0 2,-1c0,0 1,0 2,0c0,0 1.29289,0.70711 2,0c0.70711,-0.70711 0,-1 1,-1c1,0 1,-1 1,-1c1,0 2,0 2,0c0,0 1,-1 2,-1c0,0 1,0 2,0c0,0 0.29289,-0.29289 1,-1c0.70711,-0.70711 1,0 2,0c1,0 1,0 1,0c1,0 1,-1 2,-1c0,0 0,-1 1,-1c1,0 1,0 1,0c1,-1 2,-1 2,-1c1,0 1,-1 1,-1c1,0 1.29289,-0.29289 2,-1c0.70711,-0.70711 0.29289,-0.29289 1,-1c0.7071,-0.70711 1,-1 1,-2c0,0 1,0 1,-1c0,-1 0.4588,-0.69344 1,-2c0.38268,-0.92388 1,-1 1,-2c0,0 0,-1 0,-1c1,-1 1,-2 1,-2c0,-1 0,-2 0,-2c0,-1 0,-2 0,-2c0,-1 0,-2 0,-2c0,-1 0,-2 0,-2c0,-1 0,-2 0,-2c0,-1 0,-2 0,-2c0,-1 0,-2 0,-2c0,-1 0,-2 0,-2c-1,0 -1,-1 -1,-1c0,-1 -0.29289,-0.29289 -1,-1c-0.70711,-0.70711 -1,-1 -1,-2c0,0 0.70711,-0.29289 0,-1c-0.70711,-0.70711 -1,-1 -2,-1c0,0 -0.29289,0.70711 -1,0c-0.70711,-0.70711 -1,-1 -1,-1c0,-1 -1.29289,-0.29289 -2,-1c-0.70711,-0.70711 -1.29289,-0.29289 -2,-1c-0.70711,-0.70711 0,-1 -1,-1c-1,0 -1,0 -2,0c-1,0 -0.69344,-0.45881 -2,-1c-0.92388,-0.38268 -0.29289,-0.29289 -1,-1c-0.70711,-0.70711 -2,0 -2,0c0,0 -1,0 -2,-1c0,0 -1.29289,0.70711 -2,0c-0.70711,-0.70711 0,-1 -1,-1c-1,0 -2,0 -3,0c0,0 0,0 -1,0c-1,0 -1,-1 -2,-1c-1,0 -1,0 -2,0c-1,0 -1,0 -2,0c-1,0 -1,0 -2,0c-1,0 -1,0 -2,0c-1,0 -0.29289,0.29289 -1,1c-0.70711,0.70711 -2,0 -2,0c0,0 -0.29289,0.29289 -1,1c-0.70711,0.70711 -1,1 -1,1c0,1 0,2 1,2c1,0 1,1 1,1c0,1 0,0 0,-1l-1,0" id="svg_1" stroke="#000" fill="none"/>
  <path d="m14.335,21.33348c1,0 1,0 2,0c1,0 0.29289,-0.29289 1,-1c0.70711,-0.70711 2,0 2,0c2,0 2,0 3,0c1,0 1.29289,0.70711 2,0c0.70711,-0.70711 1,-1 1,-1c1,0 2,0 2,0c1,0 2,0 2,0c1,0 2,0 2,0c1,0 2,0 2,0c1,0 2,0 2,0c1,0 2,0 2,0c1,0 2,0 2,0c1,0 2,0 2,0c0,0 1,0 2,0c0,0 1,0 2,0c0,0 1.29289,-0.70711 2,0c0.70711,0.70711 1.29289,0.29289 2,1c0.70711,0.70711 1,1 2,1c0,0 2,0 2,0c1,1 2,1 2,1c1,0 2,1 2,1c1,0 2,0 2,0c1,0 2,0 2,0c1,0 1.29289,0.29289 2,1c0.7071,0.7071 1.29289,0.29289 2,1c0.70711,0.70711 2,0 2,0c1,0 1,1 2,2c0,0 1,0 1,0c1,0 1,1 1,1c0,1 1,1 1,1c0,1 1,2 1,2c0,0 1,1 2,2c0,0 0.29289,1.29289 1,2c0.70711,0.70711 1,0 1,1c0,1 1,1 2,3c0,0 0,0 0,1c0,1 0.4588,0.69344 1,2c0.38268,0.92388 1,1 1,2c0,1 -0.70711,1.29289 0,2c0.70711,0.70711 1,1 1,1c1,0 1,1 1,2c0,0 0,0 0,1c0,1 0,1 0,2c0,1 1,1 1,1c0,1 0,2 1,2c0,0 0,1 0,2c0,0 0,1 0,2c0,0 -0.70711,1.29289 0,2c0.70711,0.70711 0.29289,1.29289 1,2c0.70711,0.7071 1,1 1,2c0,0 0,1 0,2c0,0 0,1 0,1c0,1 0,1 0,2c0,1 0,1 0,2c0,1 0,1 0,2c0,1 0,1 0,2c0,1 0,1 0,3c0,0 0,1 0,2c0,0 0,1 0,2c0,0 0,1 0,1c0,1 -0.29289,0.29289 -1,1c-0.70711,0.70711 0,2 -1,2c0,0 0,0 0,1c0,1 -1,1 -1,1c0,1 -1,1 -1,2c0,0 0.70711,0.29289 0,1c-0.70711,0.70711 -1,1 -2,1c0,0 -0.4588,-0.30656 -1,1c-0.38268,0.92388 -1,1 -1,2c0,1 -1,1 -2,1c0,0 0,0 0,1c0,1 -1,1 -1,1c-1,0 -0.29289,0.29289 -1,1c-0.70711,0.70711 -2,1 -2,1c-1,0 -2,0 -2,1c0,0 -0.29289,0.29289 -1,1c-0.70711,0.70711 -1,0 -1,0c0,1 -1.29289,0.29289 -2,1c-0.70711,0.70711 -1,1 -2,1c0,0 -1,0 -1,0c-1,0 -1,0 -2,0c-1,0 -0.29289,0.29289 -1,1c-0.70711,0.70711 -2,0 -2,0c-1,0 -2,0 -2,1c0,0 -1,0 -2,0c0,0 -1,0 -2,0c0,0 -1,0 -2,0c0,0 -1,0 -2,0c0,0 -1,0 -2,0c0,0 -1,0 -2,0c0,0 -1,0 -2,0c0,0 -1,0 -2,0c0,0 -1,0 -2,0c0,0 -1,0 -2,0c0,0 -1,1 -2,1c0,0 -1,0 -2,0c0,0 -1,0 -2,0c0,0 -1,0 -2,0c0,0 -1,0 -2,0c0,0 -1,0 -2,0c0,0 -1.29289,0.70711 -2,0c-0.70711,-0.70711 -1,-1 -2,-1c0,0 0.70711,-0.29289 0,-1c-0.70711,-0.70711 -1,-1 -2,-1c0,0 0,0 0,-1c0,-1 -1,-1 -1,-2c0,-1 -1,-1 -1,-1c0,-1 0,-2 0,-2c-1,-1 -1,-2 -2,-2c0,0 0,-1 0,-2c0,0 0.70711,-1.29289 0,-2c-0.70711,-0.70711 -1,0 -1,-1c0,-1 -0.29289,-0.29289 -1,-1c-0.70711,-0.70711 0,-2 0,-2c0,-1 0,-2 0,-2c0,-1 0,-2 0,-2c0,-1 0,-2 0,-2c0,-1 0,-2 0,-2c0,-1 0,-2 0,-2c0,-1 0,-2 0,-2c0,-1 0,-2 0,-2c0,-1 0,-2 0,-2c0,-1 0,-2 0,-2c0,-1 0,-2 0,-2c0,-1 0,-2 0,-2c0,-1 0,-2 0,-2c0,-1 0,-2 0,-2c0,-1 0,-2 0,-2c0,-1 0,-2 0,-2c0,-1 0,-2 0,-2c0,-1 0,-2 0,-2c0,-1 0,-2 0,-2c0,-1 0,-2 0,-2c0,-1 0,-2 0,-2c0,-1 0,-2 0,-2c0,-1 0,-2 0,-2c0,-1 0,-2 0,-2c0,-1 0,-2 0,-2c0,-1 0,-2 0,-2c0,-1 0,-2 0,-2c0,-1 0,-2 0,-2c0,-1 0,-2 0,-2c0,-1 0,-2 0,-2c0,-1 0,-2 0,-2c0,-1 0,-2 0,-2c0,-1 0,-2 0,-2c0,-1 0,-2 0,-2l0,-1l0,-1l0,0" id="svg_2" stroke="#000" fill="none"/>
  <path d="m124.335,25.33348c1,0 5.00001,0 5.00001,0c1,0 1.69344,0.4588 3,1c0.92387,0.38268 2.15224,-0.76537 4,0c1.30656,0.5412 1,1 2,1c1,0 2,0 3,0c0,0 1,0 2,0c0,0 1,0 2,0c0,0 1,0 2,0c0,0 1,0 2,0c0,0 1,0 2,0c0,0 1,0 2,0c0,0 2,0 2,0c1,0 2,0 2,0c1,0 2,0 2,0c0.99998,0 0.99998,-1 1.99998,-1c1,0 2,0 2,0c1,0 2,0 2,0c1,0 2,-1 2,-1c1,0 2,0 2,0c1,0 2,0 2,0c2,0 3,0 4,0c1,0 2,-1 3,-1c1,0 2,0 3,0c2,0 2,0 4,0c0,0 2,0 2,0c2,0 2,0 4,0c0,0 1,0 2,0c1,0 2,0 2,0c1,0 2,-1 3,-1c1,0 1,0 2,0c1,0 1,0 2,0c1,0 1,0 1,0c1,0 2,0 2,0c1,0 2,0 2,0c1,0 2,0 2,-1c0,0 1,0 2,0c0,0 1,0 2,0c0,0 0.29289,-0.29289 1,-1c0.70711,-0.70711 1,0 2,0c1,0 1,0 2,0c1,0 1.29289,-0.70711 2,0c0.70711,0.70711 0,2 0,2c0,1 1,1 1,2c0,0 0,1 0,2c0,0 0,0 0,1c0,1 -0.70711,1.29289 0,2c0.70711,0.70711 1,1 1,1c0,1 0,2 0,2c0,1 0,2 0,2c0,1 0,2 0,2c0,1 0,2 0,2c0,1 -1,1 -1,2c0,0 0,0 0,1c0,1 -1,1 -2,1c-1,0 -1,0 -2,0c0,0 -1.29289,-0.70711 -2,0c-0.70711,0.70711 -1,1 -2,1c0,0 -1,0 -2,0c0,0 -1,0 -2,0c0,0 -1,0 -2,0c0,0 -1,0 -2,0c0,0 -1,1 -2,1c0,0 -1,0 -2,0c0,0 -1,0 -2,0c0,0 0,0 -1,0c-1,0 -0.29289,0.29289 -1,1c-0.70711,0.70711 -1,1 -1,1c0,1 -1,1 -1,2c0,0 0,1 0,2c0,0 0,1 0,2c0,0 0,0 0,1c0,1 0,1 0,2c0,1 0,1 0,2c0,1 0,1 0,2c0,1 0,1 0,2c0,1 0,1 0,2c0,1 0,1 0,2c0,1 0,1 0,2c0,1 0,1 0,2c0,1 0,1 0,2c0,1 0,1 0,2c0,1 0,1 0,2c0,1 0,1 0,2c0,1 0,2 0,3c0,0 0,1 0,2c0,0 1,0 1,1c0,1 0,1 0,2c0,1 0,1 0,2c0,1 0,1 0,2c0,1 0,1 0,2c0,1 0.29289,0.29289 1,1c0.70711,0.70711 0,2 0,2c0,1 0,2 0,2c0,1 0,2 0,2c0,1 0,2 0,2c0,1 0,2 0,2c0,1 0,2 0,2c0,1 0,2 0,2c0,1 0,2 -1,2c0,0 -0.29289,0.29289 -1,1c-0.70711,0.70711 0,1 0,1c-1,0 -1.29289,0.29289 -2,1c-0.70711,0.70711 -2,0 -2,0c-1,0 -2,0 -2,0c0,1 -1,1 -2,1c0,0 -1,0 -2,0c0,0 0,0 -1,0c-1,0 -1,0 -2,0c-1,0 -0.69344,0.4588 -2,1c-0.92387,0.38268 -1,0 -2,0c-1,0 -1,0 -2,0c-1,0 -1,0 -2,0c-1,0 -1,0 -2,0c-1,0 -1,0 -2,0c-1,0 -1,0 -2,0c-1,0 -2,-2 -3,-3c0,0 0.70711,-1.29289 0,-2c-0.70711,-0.70711 -1,-1 -1,-2c0,0 -1,0 -1,-2c0,0 0.70711,-1.29289 0,-2c-0.70711,-0.70711 -1,0 -1,-1c0,-1 -1,-1 -1,-1c0,-1 0,-2 0,-2c0,-1 0,-1 0,-2c0,0 0,-1 0,-2c0,0 -0.29289,-0.29289 -1,-1c-0.70711,-0.70711 0,-1 0,-2c0,-1 0,-1 0,-2c0,-1 0,-1 0,-2c0,-1 0,-1 0,-2c0,-1 0,-1 0,-2c0,-1 0,-1 0,-2c0,-1 0,-1 0,-2c0,-1 0,-1 0,-2c0,-1 0,-1 0,-2c0,-1 0,-1 0,-2c0,-1 0,-1 0,-2c0,-1 0,-1 0,-2c0,-1 0,-1 0,-2c0,-1 -0.29289,-0.29291 -0.99998,-1c-0.70711,-0.70711 0,-2 0,-2c0,-1 0,-2 0,-2c0,-1 0,-2 0,-2c-1,-1 -1,-2 -1,-2c-1,0 -1,-1 -1,-2c0,0 -1,0 -2,0c0,0 -1.29289,0.70711 -2,0c-0.70711,-0.70711 -1,-1 -2,-1c0,0 -1,0 -2,0c0,0 -1,0 -2,-1c0,0 -1,0 -2,0c0,0 -1,0 -2,0c0,0 -1,0 -2,0c0,0 -1,0 -2,0c0,0 0,0 -1,0c-1,0 -1,0 -2,0c-1,0 -1,0 -2,0c-1,0 -1,-1 -1,-1c-1,0 -2,0 -2,0c-1,0 -2,-1 -2,-1c-1,0 -2.00001,0 -2.00001,0c-1,0 -2,0 -2,0c-1,-1 -2,-1 -2,-1c-1,0 -1.29289,-0.29289 -2,-1c-0.70711,-0.70711 -2,0 -2,0c-1,0 -2,0 -2,0c-1,0 -1,0 -2,0c0,0 -0.83982,-0.01291 -1,-1c-0.50654,-3.12144 -1,-3 -1,-4c0,-1 0.70711,-1.29289 0,-2c-0.70711,-0.70711 -1,-1 -1,-1c0,-1 0,-2 0,-2c0,-1 0,-2 0,-2c0,-1 0,-2 0,-2c0,-1 0,-2 0,-2c1,0 1,-1 1,-2c0,0 -0.30656,-1.4588 1,-2c0.92388,-0.38268 1,0 2,0c1,0 0.29289,-0.29289 1,-1c0.70711,-0.70711 1.29289,-0.29289 2,-1c0.70711,-0.70711 2,0 2,0c0,-1 1,-1 2,-1c0,0 0,-1 1,-1c1,0 1,0 2,0c0,0 1,0 1,-1l1.00001,0" id="svg_3" stroke="#000" fill="none"/>
  <path d="m198.33499,31.33348c-1,0 -1,0 -2,0c-1,0 -1,0 -2,0c-1,0 -1,0 -2,0c-1,0 -1,0 -2,0c-1,0 -1,0 -2,0c0,0 -1,0 -1,0c-1,0 -2,0 -2,0c-1,1 -2,1 -2,1c-1,0 -2,0 -2,0c-1,0 -2,0 -2,0c-1,0 -2,0 -2,0c-1,0 -2,0 -2,0c-1,0 -2,0 -2,0c-1,0 -1,1 -2,1c0,0 -1,0 -2,0c0,0 -1,0 -1,0c-1,0 -1,0 -2,0c-1,0 -1,0 -2,0c-1,0 -0.29289,0.29289 -1,1c-0.70711,0.70711 -2,0 -2,0c-1,1 -1.99998,1 -1.99998,1c-1,0 -2,0 -2,0c-1,0 -2,0 -2,0c-1,0 -2,0 -2,0c-1,0 -2,0 -2,0c0,0 -1,0 -2,0c0,0 -1,0 -2,0c0,0 -1,0 -2,0c0,0 -1,0 -2,0c0,0 -1,0 -2,0c0,0 0,1 -1,1c-1,0 -1,0 -2,0c-1,0 -1,0 -2,0c-1,0 -1.29289,-0.70711 -2,0c-0.70711,0.70711 -1,1 -3,2c0,0 -0.29289,0.29289 -1,1c-0.70711,0.70711 -1,0 -2,0c0,0 0.29289,1.29289 1,2c0.70711,0.70711 2,0 2,0c0,0 1.29289,-0.70711 2,0c0.70711,0.70711 0,1 1,1c1,0 1,1 1,1c1,0 2,0 2,0c1,0 2,0 3,0c1,0 1,0 2,0c1,0 1,0 2,0c1,0 1,0 2,0c1,0 0.29289,0.29289 1,1c0.70711,0.70711 2,0 2,0c1,0 2,0 2,0c1,0 2,0 2,0c1,0 2,0 2,0c1,0 2,0 2,0c1,0 2,0 2,0c0.99998,0 1.99998,0 1.99998,0c1,0 2,0 2,0c1,0 1,1 1,1c0,1 0,2 0,2c0,1 1,2 1,2c0,1 0,2 0,2c1,1 1.29289,1.29289 2,2c0.70711,0.70711 0,1 0,2c0,0 0,1 1,2c0,0 0,3 0,4c0,1 0,2 1,2c0,0 0,1 0,2c0,1 0,2 0,2c0,1 0,2 0,2c0,0 0,1 0,2c0,0 0,1 0,2c0,0 0,1 0,2c0,0 0,1 0,2c0,0 0,1 0,2c0,0 0,1 0,2c0,0 0,1 0,2c0,0 0,1 0,2c0,0 0,1 0,2c0,0 0,1 0,2c0,0 0,1 0,2c0,0 0.29289,0.29289 1,1c0.70711,0.70711 0,1 0,2c0,1 1,1 1,2c0,1 0,1 0,1c0,1 0,2 0,2c0,1 0,2 1,2c0,0 0,1 1,1c0,0 1,0 2,0c0,0 1,0 2,0c0,0 0,-1 1,-1c1,0 1,0 1,0c1,0 0.29289,-1.29289 1,-2c0.70711,-0.70711 1,0 1,-1c0,-1 0,-1 0,-2c0,-1 0,-1 0,-2c0,-1 0,-1 0,-2c0,-1 0,-1 0,-2c0,-1 0,-1 0,-2c0,-1 -1,-1 -1,-2c0,-1 0,-1 0,-2c0,-1 0.70711,-1.29289 0,-2c-0.70711,-0.70711 -1,-1 -1,-1c0,-1 0,-2 0,-2c0,-1 0,-2 0,-2c0,-1 0,-2 0,-2c0,-1 0,-2 0,-2c0,-1 0,-2 0,-2c0,-1 0,-2 0,-2c-1,0 -1,-1 -1,-2c0,0 0,-1 0,-2c0,0 0,-1 0,-2c0,0 0,-1 0,-2c0,0 0,-1 0,-2c0,0 0,-1 0,-2c0,0 -0.70711,-1.29289 0,-2c0.70711,-0.70711 1,0 1,-1c0,0 0,-1 0,-1c0,-1 0,-2 0,-2c1,0 1,-1 2,-2c0,0 -0.70711,-0.29289 0,-1c0.70711,-0.70711 1,-1 2,-1c0,0 -0.70711,-0.29289 0,-1c0.70711,-0.70711 1,-1 2,-1c0,0 0.29289,0.70711 1,0c0.70711,-0.70711 1,-1 1,-2c0,0 1,0 2,0c0,0 1,0 2,0c0,0 0,0 2,-1c0,0 1,-1 2,-1c0,0 0,0 1,0c1,0 0.29289,-0.29289 1,-1c0.70711,-0.70711 2,0 2,-1c0,0 1,0 2,0c0,0 1,0 2,0c0,0 1,0 1,0c1,0 1,0 2,-1c1,-1 1.61313,-1.91761 -1,-3c-1.84776,-0.76537 -2,0 -2,0c-1,0 -2,0 -2,-1c0,0 -1.29289,0.70711 -2,0c-0.70711,-0.70711 0,-1 -1,-1c-1,0 -1,0 -2,0c-1,0 -1,0 -1,0c-1,0 -2,0 -2,-1c0,0 -1,0 -2,0l0,0l-1,0l-1,0" id="svg_4" stroke="#000" fill="none"/>
 </g>
</svg>